<svg width="759" height="562" viewBox="0 0 759 562" fill="none" xmlns="http://www.w3.org/2000/svg">
<g id="Group 9">
<path id="Rectangle 6" d="M258.954 19.1412C257.021 15.7928 258.169 11.5119 261.517 9.57947L272.053 3.49898C275.402 1.56656 279.683 2.71442 281.615 6.0628L331.721 92.8835L309.06 105.962L258.954 19.1412Z" fill="#F17772"/>
<path id="Rectangle 5" d="M535.238 6.07207C537.162 2.71856 541.44 1.55931 544.793 3.48281L555.345 9.53525C558.699 11.4588 559.858 15.7366 557.935 19.0901L508.06 106.044L485.363 93.0258L535.238 6.07207Z" fill="#F17772"/>
<g id="Group 8">
<path id="Star 1" d="M361.007 59.9325C385.428 29.2616 432.026 29.2615 456.448 59.9325L464.254 69.7363C477.343 86.1748 497.971 94.7192 518.85 92.3507L531.302 90.9382C570.258 86.5191 603.208 119.469 598.789 158.425L597.377 170.877C595.008 191.756 603.553 212.384 619.991 225.473L629.795 233.28C660.466 257.701 660.466 304.299 629.795 328.72L619.991 336.527C603.553 349.616 595.008 370.244 597.377 391.123L598.789 403.575C603.208 442.531 570.258 475.481 531.302 471.062L518.85 469.649C497.971 467.281 477.343 475.825 464.254 492.264L456.448 502.067C432.026 532.738 385.428 532.738 361.007 502.068L353.201 492.264C340.112 475.825 319.484 467.281 298.605 469.649L286.152 471.062C247.196 475.481 214.246 442.531 218.665 403.575L220.078 391.123C222.447 370.244 213.902 349.616 197.464 336.527L187.66 328.72C156.989 304.299 156.989 257.701 187.66 233.28L197.464 225.473C213.902 212.384 222.447 191.756 220.078 170.877L218.665 158.425C214.246 119.469 247.196 86.5191 286.152 90.9382L298.605 92.3507C319.484 94.7192 340.112 86.1748 353.201 69.7363L361.007 59.9325Z" fill="#E7514B"/>
<g id="eye">
<circle id="Ellipse 1" cx="328.442" cy="237.208" r="20.0714" fill="#D9D9D9"/>
</g>
<g id="eye2">
<circle id="Ellipse 2" cx="487.188" cy="237.208" r="20.0714" fill="#D9D9D9"/>
</g>
</g>
<g id="star">
<g id="star_2">
<path id="Star 2" d="M108.839 102.834C122.215 91.2265 142.719 103.064 139.355 120.452V120.452C138.267 126.074 139.824 131.884 143.577 136.209V136.209C155.184 149.585 143.346 170.089 125.958 166.725V166.725C120.336 165.637 114.527 167.194 110.202 170.947V170.947C96.8251 182.554 76.3217 170.716 79.6856 153.328V153.328C80.7733 147.706 79.2165 141.897 75.4637 137.572V137.572C63.8564 124.195 75.6941 103.692 93.0822 107.056V107.056C98.704 108.143 104.514 106.587 108.839 102.834V102.834Z" fill="#B75957"/>
</g>
</g>
<g id="star_3">
<path id="Star 3" d="M700.23 362.504C710.634 359.866 718.508 371.861 711.949 380.356V380.356C709.828 383.103 709.088 386.672 709.941 390.036V390.036C712.579 400.44 700.585 408.313 692.089 401.754V401.754C689.342 399.634 685.773 398.894 682.409 399.747V399.747C672.006 402.385 664.132 390.39 670.691 381.895V381.895C672.811 379.148 673.552 375.579 672.699 372.215V372.215C670.06 361.811 682.055 353.938 690.551 360.497V360.497C693.298 362.617 696.867 363.357 700.23 362.504V362.504Z" fill="#B75957"/>
</g>
<g id="rect">
<path id="Rectangle 3" d="M80.2019 314.437C79.2404 306.765 84.6803 299.766 92.3523 298.804L117.617 295.638C125.837 294.608 133.335 300.436 134.366 308.656L138.802 344.054C139.077 346.246 137.523 348.246 135.331 348.52L89.2291 354.298C87.0371 354.573 85.0374 353.019 84.7627 350.827L80.2019 314.437Z" fill="#8F3E3D"/>
</g>
<g id="rect_2">
<path id="Rectangle 4" d="M686.687 141.601C689.26 131.998 699.13 126.3 708.733 128.873L736.75 136.38C746.352 138.953 752.051 148.823 749.478 158.425L738.204 200.5C737.632 202.634 735.439 203.9 733.305 203.328L678.242 188.574C676.108 188.002 674.842 185.809 675.414 183.675L686.687 141.601Z" fill="#8F3E3D"/>
</g>
</g>
</svg>
